:FULLY-SPECIFIED
:FORCE-ALL-JOINTS-BE-3DOF
:DEGREES
2854
root -6.09106 13.2691 -28.8166 1240.9 -66.6288 -159.235
lfemur -65.6668 44.9768 -5.58241
ltibia 77.0644 -0 0
lfoot -4.68243 -6.02695 0.000711234
ltoes -28.5101 0 0
rfemur -31.2325 -19.1983 22.4812
rtibia 88.9345 -0 0
rfoot -41.2695 -28.4301 0.000260389
rtoes -14.0031 0 0
lowerback 15.7213 5.67196 0.904027
upperback -4.48796 8.03769 1.65386
thorax -13.9827 3.72544 -0.867756
lowerneck -2.51521 9.63381 2.20087
upperneck 9.08943 12.5423 2.09439
head 3.37155 6.33698 0.77143
lclavicle 2.83821e-14 -6.81484e-15 -2.72886e-30
lhumerus 5.45353 12.3407 84.3459
lradius 93.4015 -0 0
lwrist -19.031 0 0
lhand -39.3502 28.1928 -0.000745597
lfingers 7.12502 -0 0
lthumb -12.4776 57.6672 -0.000156683
rclavicle -5.62384e-14 -1.09394e-14 -7.66846e-32
rhumerus -59.0748 50.8455 -111.45
rradius 113.617 -0 0
rwrist -83.7068 0 0
rhand 7.9901 -26.0443 -1.63006e-05
rfingers 7.12502 -0 0
rthumb 32.9504 -52.985 9.0956e-05
2855
root -6.09253 13.2651 -28.815 1240.78 -66.6527 -159.075
lfemur -65.7272 44.9741 -5.58528
ltibia 77.1112 -0 0
lfoot -4.72632 -6.05176 0.000792056
ltoes -28.5769 0 0
rfemur -31.2435 -19.196 22.4951
rtibia 88.9707 -0 0
rfoot -41.3002 -28.4481 0.000255573
rtoes -13.9862 0 0
lowerback 15.7069 5.6403 0.983034
upperback -4.49673 8.01236 1.66266
thorax -13.9742 3.70758 -0.893024
lowerneck -2.52307 9.63262 2.19849
upperneck 9.11441 12.5401 2.09344
head 3.38164 6.33572 0.772945
lclavicle 2.60077e-14 -8.41267e-15 -2.59456e-30
lhumerus 5.49175 12.3481 84.3423
lradius 93.3738 -0 0
lwrist -19.0369 0 0
lhand -39.3337 28.1423 -0.000657465
lfingers 7.12502 -0 0
lthumb -12.4685 57.6312 -9.53385e-05
rclavicle -5.55328e-14 -1.07089e-14 -1.65923e-31
rhumerus -59.0779 50.8531 -111.457
rradius 113.612 -0 0
rwrist -83.6945 0 0
rhand 7.98251 -26.0404 -2.19086e-05
rfingers 7.12502 -0 0
rthumb 32.9607 -52.9722 7.254e-05
2856
root -6.09322 13.2624 -28.8137 1240.73 -66.7042 -158.979
lfemur -65.7772 44.972 -5.58765
ltibia 77.1589 -0 0
lfoot -4.77206 -6.07762 0.00085606
ltoes -28.6442 0 0
rfemur -31.2504 -19.1946 22.5038
rtibia 89.0047 -0 0
rfoot -41.3304 -28.4658 0.000241445
rtoes -13.9671 0 0
lowerback 15.6969 5.6177 1.03436
upperback -4.51268 7.99174 1.65318
thorax -13.9778 3.69297 -0.925572
lowerneck -2.51992 9.62416 2.24297
upperneck 9.13048 12.5292 2.05396
head 3.39278 6.33016 0.753994
lclavicle 2.36998e-14 -9.96565e-15 -2.40058e-30
lhumerus 5.52872 12.3552 84.3389
lradius 93.3478 -0 0
lwrist -19.0424 0 0
lhand -39.3182 28.0949 -0.000561551
lfingers 7.12502 -0 0
lthumb -12.4616 57.6041 -4.52481e-05
rclavicle -5.45806e-14 -1.03978e-14 -2.8185e-31
rhumerus -59.0822 50.8632 -111.466
rradius 113.607 -0 0
rwrist -83.6853 0 0
rhand 7.97395 -26.036 -2.76105e-05
rfingers 7.12502 -0 0
rthumb 32.9699 -52.9607 5.42098e-05
2857
root -6.09392 13.2596 -28.8131 1240.66 -66.7331 -158.876
lfemur -65.8151 44.9703 -5.58945
ltibia 77.2071 -0 0
lfoot -4.81912 -6.10422 0.00090037
ltoes -28.711 0 0
rfemur -31.2528 -19.1941 22.5069
rtibia 89.0361 -0 0
rfoot -41.3595 -28.483 0.000218945
rtoes -13.946 0 0
lowerback 15.6798 5.60624 1.06061
upperback -4.51975 7.98291 1.6644
thorax -13.9738 3.68739 -0.923678
lowerneck -2.54576 9.62974 2.25375
upperneck 9.16399 12.536 2.03988
head 3.41119 6.33341 0.751245
lclavicle 2.14853e-14 -1.14559e-14 -2.15563e-30
lhumerus 5.56393 12.362 84.3356
lradius 93.3239 -0 0
lwrist -19.0475 0 0
lhand -39.3039 28.0511 -0.000461627
lfingers 7.12502 -0 0
lthumb -12.4572 57.587 -1.19222e-05
rclavicle -5.34022e-14 -1.00128e-14 -4.18143e-31
rhumerus -59.0874 50.8757 -111.476
rradius 113.602 -0 0
rwrist -83.6796 0 0
rhand 7.96456 -26.0312 -3.31153e-05
rfingers 7.12502 -0 0
rthumb 32.9778 -52.9509 3.70194e-05
2858
root -6.09372 13.2565 -28.8117 1240.6 -66.7614 -158.797
lfemur -65.8391 44.9693 -5.59058
ltibia 77.2553 -0 0
lfoot -4.86697 -6.13127 0.000923022
ltoes -28.776 0 0
rfemur -31.2568 -19.1919 22.5066
rtibia 89.0645 -0 0
rfoot -41.3871 -28.4992 0.000189596
rtoes -13.9231 0 0
lowerback 15.6882 5.58521 1.06748
upperback -4.51262 7.95913 1.69128
thorax -13.974 3.67709 -0.891822
lowerneck -2.53288 9.6287 2.23076
upperneck 9.12378 12.54 2.0099
head 3.39523 6.33364 0.743133
lclavicle 1.93907e-14 -1.28654e-14 -1.87094e-30
lhumerus 5.59688 12.3683 84.3326
lradius 93.3025 -0 0
lwrist -19.052 0 0
lhand -39.291 28.0115 -0.000361777
lfingers 7.12502 -0 0
lthumb -12.4557 -662.419 0
rclavicle -5.20184e-14 -9.56071e-15 -5.68098e-31
rhumerus -59.0936 50.8903 -111.489
rradius 113.598 -0 0
rwrist -83.6776 0 0
rhand 7.95446 -26.026 -3.81542e-05
rfingers 7.12502 -0 0
rthumb 32.9843 -52.943 2.20327e-05
